<svg width="541" height="152" viewBox="0 0 541 152" fill="none" xmlns="http://www.w3.org/2000/svg">
<g clip-path="url(#clip0_7_62)">
<rect width="150" height="150" fill="white"/>
<path d="M0 49.6154C0 44.8077 3.9759 43.2692 9.21687 43.2692C15.1807 43.2692 22.9518 48.6538 22.9518 52.8846C22.9518 55.5769 19.5181 57.6923 12.8313 57.6923C4.6988 57.6923 0 54.2308 0 49.6154ZM13.5542 94.8077C13.5542 83.0769 45.7229 94.6154 45.7229 75.3846C45.7229 67.3077 32.1687 64.8077 32.1687 59.0385C32.1687 51.7308 57.8313 59.8077 57.8313 46.9231C57.8313 38.8462 45.3614 37.5 45.3614 26.7308C45.3614 24.0385 46.8072 21.5385 49.5181 21.5385C61.6265 21.5385 54.9398 47.1154 73.1928 47.1154C80.0602 47.1154 83.6747 41.7308 83.6747 33.4615C83.6747 23.6538 80.0602 20.3846 80.0602 9.23077C80.0602 4.80769 82.5904 0 87.8313 0C92.7108 0 95.9639 4.80769 95.9639 9.80769C95.9639 22.6923 90.5422 23.0769 90.5422 34.6154C90.5422 51.9231 97.7711 56.1538 111.145 56.1538C118.735 56.1538 122.53 40.7692 130.482 40.7692C136.807 40.7692 139.337 45 139.337 49.4231C139.337 60 112.41 52.6923 112.41 76.9231C112.41 105.769 150 89.0385 150 107.5C150 111.538 148.012 115 143.675 115C130.482 115 132.108 100.192 104.819 100.192C94.8795 100.192 93.0723 109.615 93.0723 117.5C93.0723 128.077 99.9398 129.808 99.9398 135.577C99.9398 140.385 96.3253 142.692 92.1687 142.692C80.4217 142.692 93.253 105.577 70.1205 105.577C46.4458 105.577 55.6626 150 34.1566 150C29.6386 150 26.5663 147.115 26.5663 141.923C26.5663 122.308 52.2289 122.885 52.2289 102.5C52.2289 95 46.6265 92.6923 41.9277 92.6923C32.7108 92.6923 26.0241 99.2308 20.0602 99.2308C16.2651 99.2308 13.5542 97.8846 13.5542 94.8077ZM112.048 141.346C112.048 136.538 115.663 132.692 120.181 132.692C124.699 132.692 128.313 136.538 128.313 141.346C128.313 146.154 124.699 150 120.181 150C115.663 150 112.048 146.154 112.048 141.346Z" fill="#B319FA" fill-opacity="0.6"/>
<path d="M102.813 81.2138C102.174 80.591 101.156 80.6078 100.54 81.252C99.875 81.9476 99.1114 82.6196 98.2708 83.2497C97.5587 83.7832 97.4117 84.7994 97.9424 85.5191C98.3041 86.0098 98.8875 86.2361 99.4479 86.1612C99.7092 86.1262 99.9656 86.0256 100.192 85.856C101.174 85.1207 102.07 84.3306 102.856 83.508C103.473 82.8638 103.453 81.8368 102.813 81.2138Z" fill="white"/>
<path d="M95.4345 86.9397C95.0801 86.1173 94.133 85.739 93.3185 86.0946C90.6548 87.2581 87.7425 88.057 84.6623 88.4689C80.143 89.0732 75.726 88.7766 71.8894 87.6111C68.3077 86.5229 65.4477 84.7045 63.8358 82.4907C63.8358 82.4905 63.8356 82.4904 63.8356 82.4902C63.0288 81.382 62.5347 80.1834 62.3668 78.9276C62.248 78.0394 61.4383 77.4148 60.5585 77.5325C59.6787 77.6501 59.0615 78.4655 59.1802 79.3537C59.3094 80.3198 59.5706 81.2564 59.958 82.157L58.1903 82.3934C57.3104 82.511 56.6932 83.3264 56.812 84.2146C56.9308 85.1028 57.7405 85.7274 58.6203 85.6097L61.8588 85.1767C66.2884 90.371 75.4488 92.9749 85.0925 91.6854C88.467 91.2341 91.6665 90.3551 94.6023 89.0728C95.4164 88.7169 95.789 87.762 95.4345 86.9397Z" fill="white"/>
</g>
<path d="M244.2 74C244.2 89.2 241.05 101.35 234.75 110.45C228.55 119.55 220.35 124.1 210.15 124.1C206.65 124.1 203.45 123.55 200.55 122.45C197.65 121.35 194.9 119.65 192.3 117.35C192 111.85 191.75 105.3 191.55 97.7C191.35 90.1 191.25 81.25 191.25 71.15C191.25 60.15 191.5 49.2 192 38.3C192.5 27.3 193.15 18.55 193.95 12.05C195.05 11.65 196.25 11.35 197.55 11.15C198.95 10.95 200.5 10.85 202.2 10.85C203 10.85 203.75 10.9 204.45 11C205.15 11.1 206.2 11.3 207.6 11.6C206.7 17.1 205.85 23.4 205.05 30.5C204.25 37.5 203.55 45.2 202.95 53.6C205.45 49.8 208.35 47 211.65 45.2C214.95 43.3 218.7 42.35 222.9 42.35C229.8 42.35 235.05 45.05 238.65 50.45C242.35 55.85 244.2 63.7 244.2 74ZM202.05 112.4C203.25 113.5 204.6 114.3 206.1 114.8C207.6 115.3 209.2 115.55 210.9 115.55C217.7 115.55 222.95 111.85 226.65 104.45C230.35 97.05 232.2 86.7 232.2 73.4C232.2 65.9 231.1 60.3 228.9 56.6C226.7 52.8 223.4 50.9 219 50.9C215.8 50.9 212.65 52.55 209.55 55.85C206.55 59.05 204.1 63.45 202.2 69.05C202.1 72.25 202 75.4 201.9 78.5C201.8 81.6 201.75 84.6 201.75 87.5C201.75 95.5 201.75 101.05 201.75 104.15C201.85 107.25 201.95 110 202.05 112.4ZM271.09 126.95C270.09 127.25 268.49 127.5 266.29 127.7C264.19 128 262.39 128.15 260.89 128.15C259.29 105.85 258.34 85.4 258.04 66.8C257.84 48.1 258.29 29 259.39 9.5C260.39 9 261.49 8.6 262.69 8.29999C263.99 7.89999 265.24 7.69999 266.44 7.69999C267.44 7.69999 268.39 7.8 269.29 8C270.29 8.1 271.34 8.29999 272.44 8.59999C270.84 24.1 269.89 42.45 269.59 63.65C269.39 84.75 269.89 105.85 271.09 126.95ZM284.473 82.7C284.473 69.7 287.423 59.1 293.323 50.9C299.323 42.7 307.023 38.6 316.423 38.6C324.123 38.6 330.223 41.55 334.723 47.45C339.223 53.25 341.473 61.1 341.473 71C341.473 85.5 338.623 97.4 332.923 106.7C327.323 115.9 319.873 120.5 310.573 120.5C302.573 120.5 296.223 117.05 291.523 110.15C286.823 103.15 284.473 94 284.473 82.7ZM329.473 77.3C329.473 67.1 328.173 59.5 325.573 54.5C322.973 49.5 319.023 47 313.723 47C308.923 47 304.723 50.3 301.123 56.9C297.623 63.5 295.873 71.6 295.873 81.2C295.873 90 297.373 97.4 300.373 103.4C303.373 109.3 307.423 112.25 312.523 112.25C317.023 112.25 320.973 108.85 324.373 102.05C327.773 95.15 329.473 86.9 329.473 77.3ZM385.958 87.95C387.558 88.15 389.108 88.5 390.608 89C392.208 89.4 393.558 89.95 394.658 90.65C394.458 99.05 392.758 105.65 389.558 110.45C386.458 115.15 382.208 117.5 376.808 117.5C370.508 117.5 365.758 113.95 362.558 106.85C359.358 99.65 357.758 89.05 357.758 75.05C357.758 70.45 357.908 65.85 358.208 61.25C358.508 56.65 358.958 51.95 359.558 47.15C357.658 47.05 355.758 46.85 353.858 46.55C352.058 46.25 350.208 45.9 348.308 45.5C348.408 44.1 348.608 42.75 348.908 41.45C349.208 40.15 349.608 38.95 350.108 37.85C352.008 38.25 353.808 38.6 355.508 38.9C357.208 39.2 358.908 39.4 360.608 39.5C361.008 36.9 361.508 34.1 362.108 31.1C362.808 28 363.708 24.2 364.808 19.7C366.908 19.8 368.958 20.05 370.958 20.45C373.058 20.75 375.058 21.2 376.958 21.8C375.958 25.1 375.058 28.3 374.258 31.4C373.458 34.5 372.808 37.5 372.308 40.4C376.308 40.5 380.208 40.5 384.008 40.4C387.808 40.2 391.508 39.95 395.108 39.65C395.108 40.65 394.958 41.8 394.658 43.1C394.458 44.3 394.158 45.6 393.758 47C390.058 47.4 386.258 47.7 382.358 47.9C378.558 48 374.758 48 370.958 47.9C370.258 52.6 369.708 57.4 369.308 62.3C368.908 67.2 368.708 72 368.708 76.7C368.708 87.3 369.458 95.4 370.958 101C372.558 106.5 374.808 109.25 377.708 109.25C380.408 109.25 382.408 107.55 383.708 104.15C385.108 100.65 385.858 95.25 385.958 87.95ZM427.407 120.5C420.107 120.5 414.557 116.95 410.757 109.85C407.057 102.75 405.207 92.3 405.207 78.5C405.207 71.5 405.757 64.5 406.857 57.5C408.057 50.4 409.507 45.3 411.207 42.2C412.107 41.9 413.007 41.7 413.907 41.6C414.807 41.4 415.707 41.3 416.607 41.3C417.507 41.3 418.307 41.4 419.007 41.6C419.807 41.7 420.557 41.95 421.257 42.35C419.757 47.15 418.607 52.65 417.807 58.85C417.007 65.05 416.607 71.75 416.607 78.95C416.607 88.65 417.707 96.6 419.907 102.8C422.207 109 425.257 112.1 429.057 112.1C433.757 112.1 437.307 108.5 439.707 101.3C442.207 94.1 443.457 84 443.457 71C443.457 67 443.257 62.85 442.857 58.55C442.457 54.15 442.057 51.1 441.657 49.4C443.157 48.7 445.007 48.15 447.207 47.75C449.407 47.35 451.507 47.15 453.507 47.15C454.007 49.45 454.357 52.2 454.557 55.4C454.857 58.6 455.007 61.85 455.007 65.15C455.007 83.05 452.657 96.75 447.957 106.25C443.357 115.75 436.507 120.5 427.407 120.5ZM481.131 106.1C482.331 107.3 483.631 108.2 485.031 108.8C486.431 109.4 487.931 109.7 489.531 109.7C495.331 109.7 500.381 105.55 504.681 97.25C508.981 88.85 511.131 78.5 511.131 66.2C511.131 59.9 510.081 54.95 507.981 51.35C505.881 47.75 503.031 45.95 499.431 45.95C495.231 45.95 491.531 47.9 488.331 51.8C485.131 55.7 482.581 61.45 480.681 69.05C480.581 70.25 480.531 71.6 480.531 73.1C480.531 74.6 480.531 76.85 480.531 79.85C480.531 83.55 480.581 87.4 480.681 91.4C480.781 95.4 480.931 100.3 481.131 106.1ZM481.731 116.45C482.131 122.25 482.631 127.9 483.231 133.4C483.931 138.9 484.781 144.6 485.781 150.5C484.381 151 482.731 151.35 480.831 151.55C479.031 151.85 477.331 152 475.731 152C474.031 139.2 472.631 125 471.531 109.4C470.431 93.8 469.881 79.6 469.881 66.8C469.881 60.9 469.981 55.6 470.181 50.9C470.381 46.2 470.731 41.55 471.231 36.95C472.531 36.25 473.931 35.75 475.431 35.45C477.031 35.05 478.681 34.85 480.381 34.85C480.881 34.85 481.481 34.9 482.181 35C482.881 35.1 483.731 35.25 484.731 35.45C484.031 38.35 483.431 41.15 482.931 43.85C482.531 46.55 482.181 49.2 481.881 51.8C484.581 46.6 487.781 42.6 491.481 39.8C495.281 37 499.431 35.6 503.931 35.6C509.731 35.6 514.381 38.3 517.881 43.7C521.381 49.1 523.131 56.3 523.131 65.3C523.131 80.2 519.881 92.65 513.381 102.65C506.881 112.55 498.931 117.5 489.531 117.5C488.231 117.5 486.931 117.45 485.631 117.35C484.331 117.15 483.031 116.85 481.731 116.45Z" fill="#B319FA"/>
<defs>
<clipPath id="clip0_7_62">
<rect width="150" height="150" fill="white"/>
</clipPath>
</defs>
</svg>
